{"title":"Arrow S02E13 HDTV x264 AAC E-Subs [GWC - SilverRG].mp4","uid":9574694,"size":124741146,"categoryP":"video","categoryS":"tv_shows","magnet":"?xt=urn:btih:d0202506b555c08f4e1b7d308711d4f95f66f758&amp;dn=Arrow+S02E13+HDTV+x264+AAC+E-Subs+%5BGWC+-+SilverRG%5D.mp4&amp;tr=udp%3A%2F%2Ftracker.openbittorrent.com%3A80&amp;tr=udp%3A%2F%2Fopen.demonii.com%3A1337&amp;tr=udp%3A%2F%2Ftracker.coppersurfer.tk%3A6969&amp;tr=udp%3A%2F%2Fexodus.desync.com%3A6969","seeders":3,"leechers":0,"uploader":"canc232","files":1,"time":1391687825,"description":"Arrow S02E13 HDTV x264 AAC E-Subs [GWC - SilverRG]\n\nPlot :\nSpoiled billionaire playboy Oliver Queen is missing and presumed dead when his yacht is lost at sea. He returns five years later a changed man, determined to clean up the city as a hooded vigilante armed with a bow. \n\n\nSCREENS : &lt;a href=&quot;\nhttp://s20.postimg.org/wuordy3jx/Arrow_S02_E13_HDTV_x264_AAC_E_Subs_GWC_16_12_55.jpg&quot; rel=&quot;nofollow&quot; target=&quot;_NEW&quot;&gt;\nhttp://s20.postimg.org/wuordy3jx/Arrow_S02_E13_HDTV_x264_AAC_E_Subs_GWC_16_12_55.jpg&lt;/a&gt; &lt;a href=&quot;\nhttp://s20.postimg.org/e3mu3s8zh/Arrow_S02_E13_HDTV_x264_AAC_E_Subs_GWC_16_13_13.jpg&quot; rel=&quot;nofollow&quot; target=&quot;_NEW&quot;&gt;\nhttp://s20.postimg.org/e3mu3s8zh/Arrow_S02_E13_HDTV_x264_AAC_E_Subs_GWC_16_13_13.jpg&lt;/a&gt; &lt;a href=&quot;\nhttp://s20.postimg.org/cd3t2argd/Arrow_S02_E13_HDTV_x264_AAC_E_Subs_GWC_16_13_37.jpg&quot; rel=&quot;nofollow&quot; target=&quot;_NEW&quot;&gt;\nhttp://s20.postimg.org/cd3t2argd/Arrow_S02_E13_HDTV_x264_AAC_E_Subs_GWC_16_13_37.jpg&lt;/a&gt;\n\n\nMEDIA INFO :\n\nGeneral \nFormat : MPEG-4 \nFormat profile : Base Media \nFile size : 119 MiB \nDuration : 42mn 4s \nOverall bit rate mode : Variable \nOverall bit rate : 395 Kbps \n\nVideo \nFormat : AVC \nFormat profile : &lt;a class=&quot;__cf_email__&quot; href=&quot;/cdn-cgi/l/email-protection&quot; data-cfemail=&quot;723a1b151a323e415c42&quot;&gt;[email&amp;#160;protected]&lt;/a&gt;&lt;script cf-hash='f9e31' type=&quot;text/javascript&quot;&gt;\n/* &lt;![CDATA[ */!function(){try{var t=&quot;currentScript&quot;in document?document.currentScript:function(){for(var t=document.getElementsByTagName(&quot;script&quot;),e=t.length;e--;)if(t[e].getAttribute(&quot;cf-hash&quot;))return t[e]}();if(t&amp;&amp;t.previousSibling){var e,r,n,i,c=t.previousSibling,a=c.getAttribute(&quot;data-cfemail&quot;);if(a){for(e=&quot;&quot;,r=parseInt(a.substr(0,2),16),n=2;a.length-n;n+=2)i=parseInt(a.substr(n,2),16)^r,e+=String.fromCharCode(i);e=document.createTextNode(e),c.parentNode.replaceChild(e,c)}}}catch(u){}}();/* ]]&gt; */&lt;/script&gt; \nFormat settings, CABAC : Yes \nFormat settings, ReFrames : 4 frames \nDuration : 42mn 4s \nBit rate : 332 Kbps \nMaximum bit rate : 1 832 Kbps \nWidth : 720 pixels \nHeight : 404 pixels \nDisplay aspect ratio : 16:9 \nFrame rate : 23.976 fps \nStream size : 99.9 MiB (84%) \nTitle : Arrow S02E13 HDTV x264 AAC E-Subs [GWC] \nWriting library : x264 core \n\nAudio \nFormat : AAC \nFormat profile : HE-AAC / LC \nDuration : 42mn 4s \nBit rate mode : Variable \nChannel(s) : 2 channels \nSampling rate : 48.0 KHz / 24.0 KHz \nStream size : 18.1 MiB (15%) \nLanguage : English \n\nText \nFormat : Timed Text \nStream size : 23.4 KiB (0%) \nTitle : English Subtitle by elderman \nLanguage : English \n\n\nWe are on FaceBook, Post Your Request, suggestion, and find upcomming Release of Silver RG, you will find all Silver RG Encoders at FB Page so keep in touch\n\nGreetz:\nTo All Silver RG Encoders,AliBaloch, All SilverTorrentHD Encoders &amp; All Other P2P RGs\n\nNote:\nMake sure its real Silver RG Release From Silver RG Member,A video sample is included in the folder for those who want to check quality and compatibility before downloading the whole movie.\n\nWe Are Looking For Early Access To Anything You Can Provide CAMS, TS, DVD Screeners, VHS Screeners, DVDRips, Direct Audio, Early Music Release, Anything You Can Provide Seedboxes, Accounts, Dedicated Servers\n\n\n\n","torrent":{"xt":"urn:btih:d0202506b555c08f4e1b7d308711d4f95f66f758","amp;dn":"Arrow+S02E13+HDTV+x264+AAC+E-Subs+%5BGWC+-+SilverRG%5D.mp4","amp;tr":["udp%3A%2F%2Ftracker.openbittorrent.com%3A80","udp%3A%2F%2Fopen.demonii.com%3A1337","udp%3A%2F%2Ftracker.coppersurfer.tk%3A6969","udp%3A%2F%2Fexodus.desync.com%3A6969"],"infoHash":"d0202506b555c08f4e1b7d308711d4f95f66f758","infoHashBuffer":{"type":"Buffer","data":[208,32,37,6,181,85,192,143,78,27,125,48,135,17,212,249,95,102,247,88]},"announce":[],"urlList":[]}}